<mxfile>
    <diagram name="Page-1" id="12e1b939-464a-85fe-373e-61e167be1490">
        <mxGraphModel dx="1204" dy="803" grid="1" gridSize="10" guides="1" tooltips="1" connect="1" arrows="1" fold="1" page="1" pageScale="1.5" pageWidth="3300" pageHeight="2339" background="none" math="0" shadow="0">
            <root>
                <mxCell id="0"/>
                <mxCell id="1" parent="0"/>
                <mxCell id="60da8b9f42644d3a-2" value="" style="whiteSpace=wrap;html=1;rounded=1;shadow=0;strokeWidth=8;fontSize=20;align=center;fillColor=#FED217;strokeColor=#FFFFFF;" parent="1" vertex="1">
                    <mxGeometry x="316" y="405" width="280" height="605" as="geometry"/>
                </mxCell>
                <mxCell id="60da8b9f42644d3a-3" value="Mission Analyser" style="text;html=1;strokeColor=none;fillColor=none;align=center;verticalAlign=middle;whiteSpace=wrap;rounded=0;shadow=0;fontSize=27;fontColor=#FFFFFF;fontStyle=1" parent="1" vertex="1">
                    <mxGeometry x="316" y="425" width="280" height="60" as="geometry"/>
                </mxCell>
                <mxCell id="60da8b9f42644d3a-4" value="Start by defining &lt;b&gt;mission parameters&lt;/b&gt; - &lt;br&gt;desired apogee, payload, stages, etc.&lt;br&gt;&lt;br&gt;&lt;br&gt;RocketPy will define high level&lt;br&gt;&lt;b&gt;design thresholds&lt;/b&gt; such as&lt;br&gt;minimum impulse.&lt;br&gt;&lt;br&gt;&lt;br&gt;Candidate vehicles will be suggested." style="text;html=1;strokeColor=none;fillColor=none;align=center;verticalAlign=middle;whiteSpace=wrap;rounded=0;shadow=0;fontSize=14;fontColor=#CC00CC;" parent="1" vertex="1">
                    <mxGeometry x="316" y="725" width="280" height="235" as="geometry"/>
                </mxCell>
                <mxCell id="60da8b9f42644d3a-6" value="" style="line;strokeWidth=2;html=1;rounded=0;shadow=0;fontSize=27;align=center;fillColor=none;strokeColor=#FFFFFF;" parent="1" vertex="1">
                    <mxGeometry x="336" y="485" width="240" height="10" as="geometry"/>
                </mxCell>
                <mxCell id="60da8b9f42644d3a-7" value="" style="line;strokeWidth=2;html=1;rounded=0;shadow=0;fontSize=27;align=center;fillColor=none;strokeColor=#FFFFFF;" parent="1" vertex="1">
                    <mxGeometry x="336" y="705" width="240" height="10" as="geometry"/>
                </mxCell>
                <mxCell id="60da8b9f42644d3a-8" value="Concept" style="ellipse;whiteSpace=wrap;html=1;rounded=0;shadow=0;strokeWidth=6;fontSize=14;align=center;fillColor=#BFB4A9;strokeColor=#FFFFFF;fontColor=#FFFFFF;" parent="1" vertex="1">
                    <mxGeometry x="259" y="545" width="115" height="115" as="geometry"/>
                </mxCell>
                <mxCell id="60da8b9f42644d3a-9" value="" style="html=1;shadow=0;dashed=0;align=center;verticalAlign=middle;shape=mxgraph.arrows2.stylisedArrow;dy=0.6;dx=40;notch=15;feather=0.4;rounded=0;strokeWidth=1;fontSize=27;strokeColor=none;fillColor=#fff2cc;" parent="1" vertex="1">
                    <mxGeometry x="406" y="573" width="100" height="60" as="geometry"/>
                </mxCell>
                <mxCell id="60da8b9f42644d3a-17" value="" style="whiteSpace=wrap;html=1;rounded=1;shadow=0;strokeWidth=8;fontSize=20;align=center;fillColor=#FFC001;strokeColor=#FFFFFF;" parent="1" vertex="1">
                    <mxGeometry x="596" y="405" width="280" height="605" as="geometry"/>
                </mxCell>
                <mxCell id="60da8b9f42644d3a-18" value="Parts Designer" style="text;html=1;strokeColor=none;fillColor=none;align=center;verticalAlign=middle;whiteSpace=wrap;rounded=0;shadow=0;fontSize=27;fontColor=#FFFFFF;fontStyle=1" parent="1" vertex="1">
                    <mxGeometry x="596" y="425" width="280" height="60" as="geometry"/>
                </mxCell>
                <mxCell id="60da8b9f42644d3a-19" value="&lt;font color=&quot;#3333ff&quot;&gt;Define all components, including&amp;nbsp;&lt;br&gt;&lt;b&gt;materials&lt;/b&gt;, &lt;b&gt;CAD&lt;/b&gt;,&amp;nbsp;&lt;/font&gt;&lt;span style=&quot;color: rgb(51 , 51 , 255)&quot;&gt;immediate &lt;b&gt;integrations&lt;/b&gt; and &lt;b&gt;loading constraints&lt;/b&gt;, etc.&lt;br&gt;&lt;/span&gt;&lt;font color=&quot;#3333ff&quot;&gt;&lt;br&gt;&lt;br&gt;Geometries can be selected from the RocketPy &lt;b&gt;Standard Components Library&lt;/b&gt;&lt;br&gt;or designed in &lt;b&gt;Fusion 360&lt;/b&gt;.&lt;br&gt;&lt;br&gt;&lt;br&gt;Design rules are enforced by &lt;b&gt;Valispace&lt;/b&gt;.&lt;br&gt;&lt;/font&gt;" style="text;html=1;strokeColor=none;fillColor=none;align=center;verticalAlign=middle;whiteSpace=wrap;rounded=0;shadow=0;fontSize=14;fontColor=#FFFFFF;" parent="1" vertex="1">
                    <mxGeometry x="600" y="725" width="270" height="235" as="geometry"/>
                </mxCell>
                <mxCell id="60da8b9f42644d3a-20" value="" style="line;strokeWidth=2;html=1;rounded=0;shadow=0;fontSize=27;align=center;fillColor=none;strokeColor=#FFFFFF;" parent="1" vertex="1">
                    <mxGeometry x="616" y="485" width="240" height="10" as="geometry"/>
                </mxCell>
                <mxCell id="60da8b9f42644d3a-21" value="" style="line;strokeWidth=2;html=1;rounded=0;shadow=0;fontSize=27;align=center;fillColor=none;strokeColor=#FFFFFF;" parent="1" vertex="1">
                    <mxGeometry x="616" y="705" width="240" height="10" as="geometry"/>
                </mxCell>
                <mxCell id="60da8b9f42644d3a-22" value="Vehicle Sized" style="ellipse;whiteSpace=wrap;html=1;rounded=0;shadow=0;strokeWidth=6;fontSize=14;align=center;fillColor=#397DAA;strokeColor=#FFFFFF;fontColor=#FFFFFF;" parent="1" vertex="1">
                    <mxGeometry x="539" y="545" width="115" height="115" as="geometry"/>
                </mxCell>
                <mxCell id="60da8b9f42644d3a-23" value="" style="html=1;shadow=0;dashed=0;align=center;verticalAlign=middle;shape=mxgraph.arrows2.stylisedArrow;dy=0.6;dx=40;notch=15;feather=0.4;rounded=0;strokeWidth=1;fontSize=27;strokeColor=none;fillColor=#fff2cc;" parent="1" vertex="1">
                    <mxGeometry x="686" y="573" width="100" height="60" as="geometry"/>
                </mxCell>
                <mxCell id="60da8b9f42644d3a-24" value="" style="whiteSpace=wrap;html=1;rounded=1;shadow=0;strokeWidth=8;fontSize=20;align=center;fillColor=#FFB001;strokeColor=#FFFFFF;" parent="1" vertex="1">
                    <mxGeometry x="876" y="405" width="280" height="605" as="geometry"/>
                </mxCell>
                <mxCell id="60da8b9f42644d3a-25" value="Optimiser" style="text;html=1;strokeColor=none;fillColor=none;align=center;verticalAlign=middle;whiteSpace=wrap;rounded=0;shadow=0;fontSize=27;fontColor=#FFFFFF;fontStyle=1" parent="1" vertex="1">
                    <mxGeometry x="876" y="425" width="280" height="60" as="geometry"/>
                </mxCell>
                <mxCell id="60da8b9f42644d3a-26" value="Select optimisation criteria such as &lt;br&gt;&lt;b&gt;minimum mass&lt;/b&gt;, &lt;b&gt;least cost&lt;/b&gt;, etc.&lt;br&gt;&lt;br&gt;&lt;br&gt;&lt;b&gt;OpenRocket&lt;/b&gt;/&lt;b&gt;ASTOS&lt;/b&gt; to benchmark performance scores, iterate with &lt;b&gt;Genetic&lt;/b&gt; &lt;b&gt;algorithms&lt;/b&gt;/manual tuning.&lt;br&gt;&lt;br&gt;&lt;br&gt;&lt;br&gt;Compare multiple designs in detail." style="text;html=1;strokeColor=none;fillColor=none;align=center;verticalAlign=middle;whiteSpace=wrap;rounded=0;shadow=0;fontSize=14;fontColor=#009900;" parent="1" vertex="1">
                    <mxGeometry x="876" y="725" width="280" height="235" as="geometry"/>
                </mxCell>
                <mxCell id="60da8b9f42644d3a-27" value="" style="line;strokeWidth=2;html=1;rounded=0;shadow=0;fontSize=27;align=center;fillColor=none;strokeColor=#FFFFFF;" parent="1" vertex="1">
                    <mxGeometry x="896" y="485" width="240" height="10" as="geometry"/>
                </mxCell>
                <mxCell id="60da8b9f42644d3a-28" value="" style="line;strokeWidth=2;html=1;rounded=0;shadow=0;fontSize=27;align=center;fillColor=none;strokeColor=#FFFFFF;" parent="1" vertex="1">
                    <mxGeometry x="896" y="705" width="240" height="10" as="geometry"/>
                </mxCell>
                <mxCell id="60da8b9f42644d3a-29" value="Vehicle&lt;br&gt;Designed" style="ellipse;whiteSpace=wrap;html=1;rounded=0;shadow=0;strokeWidth=6;fontSize=14;align=center;fillColor=#EF9353;strokeColor=#FFFFFF;fontColor=#FFFFFF;" parent="1" vertex="1">
                    <mxGeometry x="819" y="545" width="115" height="115" as="geometry"/>
                </mxCell>
                <mxCell id="60da8b9f42644d3a-30" value="" style="html=1;shadow=0;dashed=0;align=center;verticalAlign=middle;shape=mxgraph.arrows2.stylisedArrow;dy=0.6;dx=40;notch=15;feather=0.4;rounded=0;strokeWidth=1;fontSize=27;strokeColor=none;fillColor=#fff2cc;" parent="1" vertex="1">
                    <mxGeometry x="966" y="573" width="100" height="60" as="geometry"/>
                </mxCell>
                <mxCell id="60da8b9f42644d3a-31" value="" style="whiteSpace=wrap;html=1;rounded=1;shadow=0;strokeWidth=8;fontSize=20;align=center;fillColor=#FE9900;strokeColor=#FFFFFF;" parent="1" vertex="1">
                    <mxGeometry x="1156" y="405" width="280" height="605" as="geometry"/>
                </mxCell>
                <mxCell id="60da8b9f42644d3a-32" value="Deployer" style="text;html=1;strokeColor=none;fillColor=none;align=center;verticalAlign=middle;whiteSpace=wrap;rounded=0;shadow=0;fontSize=27;fontColor=#FFFFFF;fontStyle=1" parent="1" vertex="1">
                    <mxGeometry x="1156" y="425" width="280" height="60" as="geometry"/>
                </mxCell>
                <mxCell id="60da8b9f42644d3a-33" value="&lt;font&gt;Define a &lt;b&gt;manufacturing plan&lt;/b&gt; for each part.&lt;br&gt;&lt;br&gt;&lt;br&gt;Dynamic &lt;b&gt;BoM&lt;/b&gt; creator, &lt;b&gt;Gantt chart&lt;/b&gt; tool for project management, &lt;b&gt;log&lt;/b&gt; for records, &lt;b&gt;hardware dependency tracker&lt;/b&gt;, etc.&lt;br&gt;&lt;br&gt;&lt;br&gt;&lt;b&gt;Engineers own components&lt;/b&gt;; can track overall build progress and bottlenecks&lt;/font&gt;" style="text;html=1;strokeColor=none;fillColor=none;align=center;verticalAlign=middle;whiteSpace=wrap;rounded=0;shadow=0;fontSize=14;fontColor=#663300;" parent="1" vertex="1">
                    <mxGeometry x="1156" y="725" width="280" height="235" as="geometry"/>
                </mxCell>
                <mxCell id="60da8b9f42644d3a-34" value="" style="line;strokeWidth=2;html=1;rounded=0;shadow=0;fontSize=27;align=center;fillColor=none;strokeColor=#FFFFFF;" parent="1" vertex="1">
                    <mxGeometry x="1176" y="485" width="240" height="10" as="geometry"/>
                </mxCell>
                <mxCell id="60da8b9f42644d3a-35" value="" style="line;strokeWidth=2;html=1;rounded=0;shadow=0;fontSize=27;align=center;fillColor=none;strokeColor=#FFFFFF;" parent="1" vertex="1">
                    <mxGeometry x="1176" y="705" width="240" height="10" as="geometry"/>
                </mxCell>
                <mxCell id="60da8b9f42644d3a-36" value="Optimised" style="ellipse;whiteSpace=wrap;html=1;rounded=0;shadow=0;strokeWidth=6;fontSize=14;align=center;fillColor=#68B85C;strokeColor=#FFFFFF;fontColor=#FFFFFF;" parent="1" vertex="1">
                    <mxGeometry x="1099" y="545" width="115" height="115" as="geometry"/>
                </mxCell>
                <mxCell id="60da8b9f42644d3a-37" value="" style="html=1;shadow=0;dashed=0;align=center;verticalAlign=middle;shape=mxgraph.arrows2.stylisedArrow;dy=0.6;dx=40;notch=15;feather=0.4;rounded=0;strokeWidth=1;fontSize=27;strokeColor=none;fillColor=#fff2cc;" parent="1" vertex="1">
                    <mxGeometry x="1246" y="573" width="100" height="60" as="geometry"/>
                </mxCell>
                <mxCell id="60da8b9f42644d3a-38" value="Final Design" style="ellipse;whiteSpace=wrap;html=1;rounded=0;shadow=0;strokeWidth=6;fontSize=14;align=center;fillColor=#BF639A;strokeColor=#FFFFFF;fontColor=#FFFFFF;" parent="1" vertex="1">
                    <mxGeometry x="1379" y="545" width="115" height="115" as="geometry"/>
                </mxCell>
                <mxCell id="tITEyfayQ68Z57zfSeqE-1" value="The RocketPy Workflow" style="text;html=1;align=center;verticalAlign=middle;resizable=0;points=[];autosize=1;strokeColor=none;fontColor=#CC00CC;fontSize=60;fontFamily=Helvetica;fontStyle=0" parent="1" vertex="1">
                    <mxGeometry x="551.5" y="310" width="650" height="80" as="geometry"/>
                </mxCell>
            </root>
        </mxGraphModel>
    </diagram>
</mxfile>